<?xml version="1.0" encoding="iso-8859-1"?>
<!-- Generator: Adobe Illustrator 19.0.0, SVG Export Plug-In . SVG Version: 6.00 Build 0)  -->
<svg version="1.1" id="Layer_1" xmlns="http://www.w3.org/2000/svg" xmlns:xlink="http://www.w3.org/1999/xlink" x="0px" y="0px"
	 viewBox="0 0 512 512" style="enable-background:new 0 0 512 512;" xml:space="preserve">
<circle style="fill:#EBEDEC;" cx="256.012" cy="256" r="244.416"/>
<path style="fill:#4C5870;" d="M348.062,397.239c-32.117,0-84.531-14.129-151.846-81.445
	c-30.257-30.255-52.485-60.375-66.068-89.521c-11.947-25.634-16.977-49.791-14.949-71.8c2.64-28.644,21.279-46.422,24.475-49.276
	c1.519-0.783,3.271-1.522,4.082-1.719c0.817,0.167,2.589,0.84,4.121,1.564c3.38,2.658,23.262,18.485,42.817,38.04
	c21.043,21.043,37.711,42.391,38.409,43.289l0.257,0.33c0.258,0.39,0.973,1.667,0.945,3.75c-0.015,1.144-0.88,2.614-1.39,3.289
	l-28.984,28.982l89.363,89.363l28.329-28.415l0.032-0.053c0.309-0.299,1.539-1.373,3.765-1.911c0.295-0.072,0.585-0.107,0.885-0.107
	c1.706,0,3.125,1.138,3.139,1.15l0.21,0.199l-0.015-0.041c0.899,0.7,22.25,17.37,43.289,38.409
	c20.426,20.426,36.818,41.253,38.321,43.176c0.349,0.526,1.303,2.296,1.303,3.872c0,1.539-0.977,3.069-1.352,3.527
	c-0.768,0.909-18.982,22.094-49.665,24.921C354.448,397.095,351.26,397.239,348.062,397.239L348.062,397.239z"/>
<path style="fill:#11113F;" d="M510.799,231.105c-5.715-58.819-31.915-114.265-73.774-156.125C388.672,26.629,324.385,0,256.005,0
	S123.338,26.629,74.985,74.98C26.633,123.333,0.005,187.62,0.005,256s26.629,132.667,74.98,181.02
	c48.353,48.352,112.64,74.98,181.02,74.98s132.667-26.629,181.02-74.98c2.172-2.172,3.393-5.119,3.393-8.191
	c0-3.072-1.221-6.019-3.393-8.191l-35.593-35.594c6.322-4.906,9.846-9.009,10.184-9.409c3.533-4.183,3.654-10.269,0.291-14.59
	c-0.709-0.91-17.607-22.55-38.885-43.827c-21.277-21.277-42.917-38.176-43.827-38.884c-4.61-3.59-11.174-3.182-15.307,0.95
	l-24.602,24.602l-81.165-81.165l24.601-24.601c4.132-4.132,4.538-10.695,0.95-15.307c-0.709-0.91-17.607-22.55-38.884-43.827
	c-21.278-21.278-42.916-38.176-43.827-38.885c-4.32-3.363-10.406-3.242-14.59,0.291c-0.974,0.822-23.901,20.534-26.943,53.55
	c-2.123,23.043,3.08,48.202,15.467,74.779c13.87,29.761,36.488,60.436,67.221,91.171c30.735,30.735,61.41,53.351,91.171,67.221
	c26.575,12.385,51.735,17.586,74.779,15.467c8.435-0.777,16.003-2.853,22.608-5.529l31.578,31.578
	c-91.274,82.702-232.85,80.043-320.883-7.989c-90.782-90.782-90.782-238.495,0-329.275c90.782-90.782,238.495-90.782,329.276,0
	c77.638,77.638,90.347,200.512,30.222,292.167c-3.509,5.349-2.018,12.53,3.331,16.04c5.352,3.51,12.531,2.018,16.04-3.331
	C502.03,347.77,516.435,289.125,510.799,231.105z M355.939,379.508c-24.434,2.255-76.07-4.629-147.442-76
	s-78.251-123.011-76-147.442c1.268-13.764,7.555-24.474,12.52-30.962c8.067,6.702,20.902,17.775,33.388,30.261
	c12.649,12.649,23.88,25.697,30.558,33.748l-25.415,25.415c-4.523,4.523-4.523,11.858,0,16.383l97.546,97.546
	c4.523,4.523,11.858,4.523,16.383,0l25.416-25.416c8.041,6.67,21.074,17.888,33.747,30.559
	c12.464,12.464,23.551,25.315,30.262,33.391C380.414,371.955,369.705,378.239,355.939,379.508z"/>
<g>
</g>
<g>
</g>
<g>
</g>
<g>
</g>
<g>
</g>
<g>
</g>
<g>
</g>
<g>
</g>
<g>
</g>
<g>
</g>
<g>
</g>
<g>
</g>
<g>
</g>
<g>
</g>
<g>
</g>
</svg>
