<?xml version="1.0" encoding="iso-8859-1"?>
<!-- Generator: Adobe Illustrator 19.0.0, SVG Export Plug-In . SVG Version: 6.00 Build 0)  -->
<svg version="1.1" id="Layer_1" xmlns="http://www.w3.org/2000/svg" xmlns:xlink="http://www.w3.org/1999/xlink" x="0px" y="0px"
	 viewBox="0 0 512 512" style="enable-background:new 0 0 512 512;" xml:space="preserve">
<path style="fill:#5D9BEB;" d="M512,256.006C512,397.402,397.394,512.004,256.004,512C114.606,512.004,0,397.402,0,256.006
	C-0.007,114.61,114.606,0,256.004,0C397.394,0,512,114.614,512,256.006z"/>
<path style="fill:#4988DB;" d="M508.182,299.862l-0.287-0.194c-0.3-0.293-0.477-0.686-0.828-0.927l-0.313-0.213
	c-0.297-0.293-86.445-86.445-86.445-86.445c-0.297-0.293-0.474-0.684-0.826-0.925L263.538,104.832
	c-2.371-1.62-5.475-1.648-7.867-0.083L92.637,211.124c-2.007,1.309-3.216,3.545-3.216,5.939v155.898
	c0,9.374,4.599,18.436,11.507,25.072c0.373,0.389,0.748,0.764,1.137,1.137c0.373,0.389,107.669,107.683,108.059,108.059
	c0.237,0.246,0.479,0.482,0.72,0.72c14.668,2.611,29.741,4.051,45.159,4.05C382.433,512.003,487.373,420.347,508.182,299.862z"/>
<g>
	<path style="fill:#F4F6F9;" d="M419.485,211.159L263.538,104.833c-2.371-1.62-5.475-1.648-7.868-0.083L92.637,211.124
		c-2.007,1.309-3.215,3.545-3.215,5.939v155.898c0,18.22,17.222,35.442,35.442,35.442h262.273c18.22,0,35.442-17.222,35.442-35.442
		V217.014C422.579,214.669,421.42,212.481,419.485,211.159z M387.137,394.227H124.863c-10.335,0-21.265-10.93-21.265-21.265V232.727
		l88.114,61.002c1.232,0.851,2.638,1.26,4.029,1.26c2.25,0,4.458-1.066,5.836-3.053c2.229-3.219,1.426-7.635-1.793-9.865
		l-92.15-63.796l-0.002-0.001l151.826-99.065l144.705,98.66c-0.157,0.093-0.337,0.106-0.489,0.211l-91.361,63.796
		c-3.326,2.319-4.14,6.901-1.818,10.231c1.429,2.042,3.71,3.136,6.03,3.136c1.451,0,2.917-0.429,4.198-1.323l87.678-61.225v140.263
		C408.402,383.297,397.472,394.227,387.137,394.227z"/>
	<path style="fill:#F4F6F9;" d="M305.855,305.247c-1.312-1.98-3.531-3.17-5.905-3.17h-87.92c-2.374,0-4.593,1.19-5.905,3.17
		l-37.682,56.777c-2.166,3.261-1.277,7.657,1.987,9.823c3.257,2.166,7.66,1.267,9.823-1.987l35.581-53.606h80.313l35.581,53.606
		c1.363,2.055,3.617,3.17,5.911,3.17c1.346,0,2.706-0.381,3.911-1.184c3.264-2.166,4.154-6.562,1.987-9.823L305.855,305.247z"/>
</g>
<g>
</g>
<g>
</g>
<g>
</g>
<g>
</g>
<g>
</g>
<g>
</g>
<g>
</g>
<g>
</g>
<g>
</g>
<g>
</g>
<g>
</g>
<g>
</g>
<g>
</g>
<g>
</g>
<g>
</g>
</svg>
