<?xml version="1.0" encoding="iso-8859-1"?>
<!-- Generator: Adobe Illustrator 19.0.0, SVG Export Plug-In . SVG Version: 6.00 Build 0)  -->
<svg version="1.1" id="Layer_1" xmlns="http://www.w3.org/2000/svg" xmlns:xlink="http://www.w3.org/1999/xlink" x="0px" y="0px"
	 viewBox="0 0 512 512" style="enable-background:new 0 0 512 512;" xml:space="preserve">
<path style="fill:#4FC0E8;" d="M0,256.006C0,397.402,114.606,512.004,255.996,512C397.394,512.004,512,397.402,512,256.006
	C512.009,114.61,397.394,0,255.996,0C114.606,0,0,114.614,0,256.006z"/>
<path style="fill:#3DAED9;" d="M512,256.005c0.002-33.734-6.586-65.914-18.44-95.408c-0.101-0.059-0.198-0.126-0.294-0.195
	c-0.224-0.314-0.354-0.673-0.636-0.956c-0.282-0.283-69.782-69.783-70.065-70.066c-2.746-2.745-7.194-2.745-9.94,0L308.608,193.396
	c-0.336-0.372-32.373-32.336-32.998-32.784c-1.275-1.776-3.257-3.008-5.61-3.008c-3.882,0-7.028,3.143-7.028,7.028v62.253
	c-0.066-0.058-0.143-0.1-0.211-0.156c-0.543-0.519-94.978-95.074-95.562-95.556c-5.263-5.026-12.067-8.196-19.42-8.655
	c-8.909-0.461-17.601,2.757-23.905,9.066l-25.629,25.69c-14.235,14.263-34.846,59.954,80.893,175.941
	c0.268,0.268,0.515,0.499,0.783,0.765c0.279,0.282,0.53,0.547,0.811,0.828c0.246,0.247,161.31,161.292,161.555,161.539
	c0.179,0.179,0.352,0.356,0.524,0.533C441.467,461.324,512,366.922,512,256.005z"/>
<g>
	<path style="fill:#F6F6F6;" d="M377.502,342.042l-40.125-31.298c-11.322-8.833-27.098-8.771-38.364,0.138l-8.923,7.062
		c-6.768,5.354-16.469,4.784-22.574-1.317l-71.769-71.923c-6.109-6.129-6.678-15.875-1.322-22.67l7.049-8.943
		c8.889-11.27,8.946-27.063,0.138-38.402l-31.226-40.207c-5.47-7.049-13.71-11.407-22.605-11.963
		c-8.909-0.46-17.602,2.759-23.906,9.067l-25.629,25.691c-14.235,14.262-34.846,59.953,80.894,175.94
		c75.427,75.596,121.454,91.463,146.784,91.463h0.003c15.254,0,24.098-5.649,28.827-10.391l25.632-25.683
		c6.294-6.307,9.588-15.031,9.033-23.94C388.868,355.769,384.523,347.519,377.502,342.042z M370.435,378.679l-25.632,25.683
		c-2.848,2.855-8.438,6.259-18.878,6.259c-18.559,0-61.013-11.345-136.832-87.332c-87.339-87.524-98.162-138.788-80.894-156.091
		l25.629-25.691c3.199-3.205,7.533-4.99,12.029-4.99c0.35,0,0.7,0.006,1.054,0.034c4.866,0.302,9.376,2.69,12.375,6.548
		l31.229,40.207c4.832,6.225,4.801,14.894-0.076,21.078l-7.049,8.943c-9.76,12.382-8.727,30.138,2.405,41.298l71.772,71.93
		c11.15,11.167,28.892,12.19,41.247,2.41l8.923-7.062c6.16-4.886,14.798-4.914,20.992-0.082l40.125,31.298
		c3.854,3.006,6.236,7.536,6.538,12.416C375.697,370.429,373.888,375.213,370.435,378.679z"/>
	<path style="fill:#F6F6F6;" d="M422.564,89.38c-2.746-2.746-7.193-2.746-9.938,0L277.029,224.977v-60.345
		c0-3.885-3.147-7.028-7.028-7.028s-7.028,3.143-7.028,7.028v77.311c0,3.885,3.147,7.028,7.028,7.028h70.283
		c3.882,0,7.028-3.143,7.028-7.028s-3.147-7.028-7.028-7.028h-53.316L422.564,99.318C425.31,96.573,425.31,92.126,422.564,89.38z"/>
</g>
<g>
</g>
<g>
</g>
<g>
</g>
<g>
</g>
<g>
</g>
<g>
</g>
<g>
</g>
<g>
</g>
<g>
</g>
<g>
</g>
<g>
</g>
<g>
</g>
<g>
</g>
<g>
</g>
<g>
</g>
</svg>
