<?xml version="1.0" encoding="iso-8859-1"?>
<!-- Generator: Adobe Illustrator 19.0.0, SVG Export Plug-In . SVG Version: 6.00 Build 0)  -->
<svg version="1.1" id="Capa_1" xmlns="http://www.w3.org/2000/svg" xmlns:xlink="http://www.w3.org/1999/xlink" x="0px" y="0px"
	 viewBox="0 0 393.261 393.261" style="enable-background:new 0 0 393.261 393.261;" xml:space="preserve">
<g>
	<path style="fill:none;" d="M220.987,285.55c-30.954-4.661-105.48-74.205-113.276-113.276c-2.52-12.633,1.13-22.799,3.978-29.522
		l-75.43-75.43c-0.173,0.14-28.831,29.748,6.229,94.854c11.337,21.052,40.75,71.006,80.268,110.436
		c38.815,38.729,87.653,67.027,108.33,78.162c65.105,35.061,94.715,6.403,94.855,6.23l-75.431-75.432
		C243.787,284.421,236.425,287.876,220.987,285.55z"/>
	<polygon style="fill:#73D0F4;" points="269.586,266.707 342.911,340.032 362.952,319.991 279.774,256.519 	"/>
	<polygon style="fill:#73D0F4;" points="53.229,50.351 126.553,123.674 136.741,113.485 73.27,30.31 	"/>
	<path style="fill:#3D6889;" d="M285.993,231.072c-4.777-3.646-11.517-3.197-15.767,1.054l-25.456,25.455
		c-25.876,25.877-72.966-28.63-76.932-32.158c-3.529-3.967-56.397-52.697-32.16-76.934l25.456-25.455
		c4.25-4.251,4.7-10.99,1.053-15.768L83.898,4.718c-2.1-2.751-5.285-4.46-8.738-4.691c-3.454-0.231-6.838,1.04-9.285,3.487
		L20.548,48.84c-6.359,7.352-43.291,40.994,0.706,124.52c30.287,57.496,65.019,95.688,84.29,114.356
		c18.668,19.271,56.86,54.004,114.355,84.289c83.525,43.997,117.169,7.067,124.519,0.706l45.327-45.327
		c2.447-2.446,3.718-5.831,3.489-9.283c-0.231-3.454-1.94-6.639-4.692-8.74L285.993,231.072z M126.553,123.674L53.229,50.351
		L73.27,30.31l63.471,83.176L126.553,123.674z M325.941,357.003c-0.14,0.173-29.75,28.83-94.855-6.23
		c-20.677-11.135-69.515-39.433-108.33-78.162c-39.518-39.43-68.931-89.384-80.268-110.436C7.427,97.07,36.086,67.461,36.259,67.321
		l75.43,75.43c-2.849,6.724-6.499,16.89-3.978,29.522c7.796,39.071,82.323,108.615,113.276,113.276
		c15.438,2.326,22.8-1.129,29.523-3.979L325.941,357.003z M342.911,340.032l-73.325-73.325l10.188-10.188l83.178,63.473
		L342.911,340.032z"/>
</g>
<g>
</g>
<g>
</g>
<g>
</g>
<g>
</g>
<g>
</g>
<g>
</g>
<g>
</g>
<g>
</g>
<g>
</g>
<g>
</g>
<g>
</g>
<g>
</g>
<g>
</g>
<g>
</g>
<g>
</g>
</svg>
