<?xml version="1.0" encoding="iso-8859-1"?>
<!-- Generator: Adobe Illustrator 19.0.0, SVG Export Plug-In . SVG Version: 6.00 Build 0)  -->
<svg version="1.1" id="Layer_1" xmlns="http://www.w3.org/2000/svg" xmlns:xlink="http://www.w3.org/1999/xlink" x="0px" y="0px"
	 viewBox="0 0 473.654 473.654" style="enable-background:new 0 0 473.654 473.654;" xml:space="preserve">
<circle style="fill:#357180;" cx="236.827" cy="236.827" r="236.827"/>
<path style="fill:#FFFFFF;" d="M360.615,219.408c-48.353-48.349-96.702-96.698-145.054-145.047
	c-17.124-17.127-47.781-4.529-47.781,19.737c0,95.733,0,191.466,0,287.196c-0.138,1.709-0.101,3.403,0.105,5.078
	c0.789,12.06,8.033,19.797,17.09,23.178c8.859,4.349,19.696,4.241,28.993-3.788c1.526-1.156,2.921-2.483,4.158-3.99
	c47.567-47.56,95.131-95.127,142.698-142.695C371.672,248.237,371.373,230.171,360.615,219.408z"/>
<g>
</g>
<g>
</g>
<g>
</g>
<g>
</g>
<g>
</g>
<g>
</g>
<g>
</g>
<g>
</g>
<g>
</g>
<g>
</g>
<g>
</g>
<g>
</g>
<g>
</g>
<g>
</g>
<g>
</g>
</svg>
